<svg width="1200" height="630" xmlns="http://www.w3.org/2000/svg">
  <defs>
    <linearGradient id="bg" x1="0%" y1="0%" x2="100%" y2="100%">
      <stop offset="0%" style="stop-color:#059669;stop-opacity:1"/>
      <stop offset="100%" style="stop-color:#0d9488;stop-opacity:1"/>
    </linearGradient>
  </defs>
  <rect width="1200" height="630" fill="url(#bg)"/>
  <!-- Clipboard -->
  <rect x="150" y="120" width="320" height="420" rx="16" fill="white" opacity="0.95"/>
  <rect x="230" y="100" width="160" height="40" rx="20" fill="#6ee7b7"/>
  <rect x="260" y="108" width="100" height="24" rx="12" fill="#34d399"/>
  <!-- Checklist items -->
  <rect x="190" y="180" width="24" height="24" rx="4" fill="#10b981"/>
  <text x="195" y="200" font-family="Arial" font-size="18" fill="white" font-weight="bold">✓</text>
  <rect x="230" y="182" width="180" height="16" rx="4" fill="#d1fae5"/>

  <rect x="190" y="230" width="24" height="24" rx="4" fill="#10b981"/>
  <text x="195" y="250" font-family="Arial" font-size="18" fill="white" font-weight="bold">✓</text>
  <rect x="230" y="232" width="150" height="16" rx="4" fill="#d1fae5"/>

  <rect x="190" y="280" width="24" height="24" rx="4" fill="#10b981"/>
  <text x="195" y="300" font-family="Arial" font-size="18" fill="white" font-weight="bold">✓</text>
  <rect x="230" y="282" width="200" height="16" rx="4" fill="#d1fae5"/>

  <rect x="190" y="330" width="24" height="24" rx="4" fill="#a7f3d0" stroke="#10b981" stroke-width="2"/>
  <rect x="230" y="332" width="170" height="16" rx="4" fill="#d1fae5"/>

  <rect x="190" y="380" width="24" height="24" rx="4" fill="#a7f3d0" stroke="#10b981" stroke-width="2"/>
  <rect x="230" y="382" width="190" height="16" rx="4" fill="#d1fae5"/>

  <rect x="190" y="430" width="24" height="24" rx="4" fill="#a7f3d0" stroke="#10b981" stroke-width="2"/>
  <rect x="230" y="432" width="140" height="16" rx="4" fill="#d1fae5"/>
  <!-- Suitcase -->
  <rect x="750" y="300" width="200" height="150" rx="16" fill="#fbbf24" opacity="0.9"/>
  <rect x="810" y="280" width="80" height="30" rx="10" fill="none" stroke="#f59e0b" stroke-width="6"/>
  <rect x="770" y="340" width="40" height="8" rx="4" fill="#f59e0b"/>
  <rect x="770" y="360" width="40" height="8" rx="4" fill="#f59e0b"/>
  <!-- Passport -->
  <rect x="620" y="200" width="90" height="120" rx="8" fill="#1e40af" opacity="0.9"/>
  <circle cx="665" cy="250" r="20" fill="none" stroke="#60a5fa" stroke-width="2"/>
  <rect x="645" y="285" width="40" height="6" rx="3" fill="#60a5fa"/>
  <rect x="650" y="296" width="30" height="4" rx="2" fill="#60a5fa"/>
  <!-- Text -->
  <text x="750" y="120" text-anchor="middle" font-family="Arial, sans-serif" font-size="48" font-weight="bold" fill="white">Checklist Voyage</text>
  <text x="750" y="175" text-anchor="middle" font-family="Arial, sans-serif" font-size="32" fill="#a7f3d0">Ne rien oublier</text>
  <rect x="650" y="510" width="300" height="50" rx="25" fill="white" opacity="0.2"/>
  <text x="800" y="544" text-anchor="middle" font-family="Arial, sans-serif" font-size="22" font-weight="bold" fill="white">Guide complet 2026</text>
</svg>