<svg width="1200" height="630" xmlns="http://www.w3.org/2000/svg">
  <defs>
    <linearGradient id="bg" x1="0%" y1="0%" x2="100%" y2="100%">
      <stop offset="0%" style="stop-color:#1e40af;stop-opacity:1"/>
      <stop offset="100%" style="stop-color:#0ea5e9;stop-opacity:1"/>
    </linearGradient>
  </defs>
  <rect width="1200" height="630" fill="url(#bg)"/>
  <!-- Sun -->
  <circle cx="1000" cy="120" r="70" fill="#f59e0b" opacity="0.9"/>
  <!-- Greek building -->
  <rect x="100" y="280" width="200" height="180" fill="white" opacity="0.9"/>
  <rect x="120" y="240" width="160" height="40" fill="white" opacity="0.9"/>
  <polygon points="110,240 200,190 290,240" fill="white" opacity="0.95"/>
  <rect x="140" y="300" width="20" height="100" fill="#bfdbfe"/>
  <rect x="180" y="300" width="20" height="100" fill="#bfdbfe"/>
  <rect x="220" y="300" width="20" height="100" fill="#bfdbfe"/>
  <rect x="260" y="300" width="20" height="100" fill="#bfdbfe"/>
  <!-- Blue dome -->
  <circle cx="500" cy="350" r="60" fill="#2563eb"/>
  <rect x="460" y="350" width="80" height="110" fill="white" opacity="0.9"/>
  <circle cx="500" cy="345" r="50" fill="#3b82f6"/>
  <rect x="480" y="380" width="15" height="30" fill="#60a5fa"/>
  <rect x="505" y="380" width="15" height="30" fill="#60a5fa"/>
  <!-- Sea -->
  <path d="M0 480 Q200 450 400 480 Q600 510 800 480 Q1000 450 1200 480 L1200 630 L0 630Z" fill="#0369a1" opacity="0.4"/>
  <path d="M0 510 Q200 480 400 510 Q600 540 800 510 Q1000 480 1200 510 L1200 630 L0 630Z" fill="#075985" opacity="0.3"/>
  <!-- Text -->
  <text x="800" y="320" text-anchor="middle" font-family="Arial, sans-serif" font-size="48" font-weight="bold" fill="white">All Inclusive Grece</text>
  <text x="800" y="380" text-anchor="middle" font-family="Arial, sans-serif" font-size="36" fill="#fde68a">2026</text>
  <rect x="650" y="410" width="300" height="50" rx="25" fill="#f59e0b"/>
  <text x="800" y="444" text-anchor="middle" font-family="Arial, sans-serif" font-size="24" font-weight="bold" fill="white">Des 399€/personne</text>
</svg>